<svg id="visual" viewBox="0 0 900 600" width="900" height="600" xmlns="http://www.w3.org/2000/svg" xmlns:xlink="http://www.w3.org/1999/xlink" version="1.1"><rect x="0" y="0" width="900" height="600" fill="#000000"></rect><path d="M0 178L150 211L300 202L450 189L600 159L750 188L900 209L900 0L750 0L600 0L450 0L300 0L150 0L0 0Z" fill="#031739"></path><path d="M0 191L150 140L300 121L450 189L600 139L750 150L900 192L900 0L750 0L600 0L450 0L300 0L150 0L0 0Z" fill="#15305b"></path><path d="M0 103L150 134L300 128L450 114L600 110L750 140L900 103L900 0L750 0L600 0L450 0L300 0L150 0L0 0Z" fill="#264c80"></path><path d="M0 101L150 88L300 70L450 109L600 82L750 70L900 117L900 0L750 0L600 0L450 0L300 0L150 0L0 0Z" fill="#356aa6"></path><path d="M0 66L150 66L300 77L450 74L600 60L750 67L900 49L900 0L750 0L600 0L450 0L300 0L150 0L0 0Z" fill="#438ace"></path><path d="M0 49L150 34L300 35L450 38L600 46L750 47L900 56L900 0L750 0L600 0L450 0L300 0L150 0L0 0Z" fill="#4facf7"></path></svg>